<svg id="SKK_Auto_Locksmith_Main" data-name="SKK Auto Locksmith Main" xmlns="http://www.w3.org/2000/svg" xmlns:xlink="http://www.w3.org/1999/xlink" width="3076.34" height="3663.348" viewBox="0 0 3076.34 3663.348">
  <defs>
    <style>
      .cls-1 {
        fill: #05070a;
      }

      .cls-1, .cls-2, .cls-3, .cls-4, .cls-5, .cls-6, .cls-7, .cls-8 {
        fill-rule: evenodd;
      }

      .cls-2 {
        fill: #fff;
      }

      .cls-3 {
        fill: url(#linear-gradient);
      }

      .cls-4 {
        fill: url(#linear-gradient-2);
      }

      .cls-5 {
        fill: #ec3416;
      }

      .cls-6 {
        fill: #cf270b;
      }

      .cls-7 {
        fill: #ffcabc;
      }

      .cls-8 {
        fill: #d09087;
      }
    </style>
    <linearGradient id="linear-gradient" x1="2042.125" y1="3584" x2="2042.125" y2="647" gradientUnits="userSpaceOnUse">
      <stop offset="0" stop-color="#6d0000"/>
      <stop offset="0.561" stop-color="#6d0000"/>
      <stop offset="1" stop-color="#e66202"/>
    </linearGradient>
    <linearGradient id="linear-gradient-2" x1="2048" y1="4096" x2="2048" gradientUnits="userSpaceOnUse">
      <stop offset="0" stop-color="#940505"/>
      <stop offset="0.406" stop-color="#940505"/>
      <stop offset="1" stop-color="#ff872f"/>
    </linearGradient>
  </defs>
  <path class="cls-1" d="M2041,3850s466.51-116.44,884.73-587c81.35,0,195.27-24,195.27-24s21.41-165.63,21.41-263.61C3438.53,2509.67,3651.43,1808.73,3546,764c-326.05-121.512-970-226-970-226s-32.98-91.385-134-106c-33.03-46.343-149.23-309.114-524-146-125.47,83.037-176.13,199.8-178,257-54.1,11.3-581.85-14.376-1212,215,0,171.4-54.994,1828.57,487,2313-15.062,93.73-45,177-45,177h197S1690.63,3729.01,2041,3850Z" transform="translate(-509.5 -216.312)"/>
  <g id="Main">
    <path id="Frame" class="cls-2" d="M3158,3004.96V3270H2948c-215.8,221.51-523.36,438.37-903.64,609.66-390.27-175.81-681.3-380.34-898.34-608.93L939,3268.3l60.7-169.51C503.383,2445.37,509.513,1622.11,509.513,722.708c523.587-184.532,943.4-210.7,1247.637-211.469-4.53,25.392-9.87,52.083-16.09,70.778-289,2.344-681.43,31.3-1167.042,202.451,0,868.132-5.971,1662.212,480.362,2290.452l-50.99,148.06,178.92,1.05c208.1,219.65,487.37,416.15,862.19,585h0C2413.63,3642.76,2701.33,3440.6,2909,3225l30.15,0.3H3105l-2.12-211.54-0.54-29.4c421.64-613.16,418.99-1372.81,418.99-2199.635-361.97-127.559-673.93-176.2-929.78-193.705-6.29-26.366-19.47-51.851-33.66-73.725,277.32,14.8,622.59,62.833,1027.94,205.681C3585.83,1579.74,3588.57,2367.41,3158,3004.96ZM2653,3225c-150.02,122.41-433.85,292.55-608,359-187.48-66.25-446.91-230.12-607-360C1532.94,3224,2237.56,3225,2653,3225Zm-1378.82-.43,66.1,0.39c180.25,166.93,410.39,317.88,704.21,450.25,289.02-130.2,524.18-284.53,703.51-448.21h66c-191.4,185.03-446.99,358.27-769.34,503.47C1717.13,3582.92,1466.29,3413.18,1274.18,3224.57ZM3449.58,842.249c0,795.9,2.58,1537.531-413.04,2124.4l-54.66.3C3408.5,2391.76,3406,1607.16,3406,821,3440.38,840.219,3437.69,837.662,3449.58,842.249Zm-2803.813-.244c0,811.875-5.489,1566.825,433.863,2159.585l8.37-24.29,28.14-.16C683.579,2400.24,689,1609.91,689,819,677.093,825.712,653.382,838.54,645.767,842.005Z" transform="translate(-509.5 -216.312)"/>
    <g id="Yellow">
      <path id="Background_copy" data-name="Background copy" class="cls-3" d="M2653,3225c-150.02,122.41-433.85,292.55-608,359-187.48-66.25-446.91-230.12-607-360C1532.94,3224,2237.56,3225,2653,3225ZM2362,1269s9.6-100,35-125c20.84-20.51,24.67-80.98,41-130s21.39-57.983,21-92,6.91-134.2,7-144c38.59,0.9,87.68-2.428,127-31,45.45-27.282,47.21-68.549,48-96,242.47,15.78,570.92,97.3,706,152,0,201.08,58.63,1461.46-368,2067-75.43-131.03-121-220-121-220l321-374H2990l-10-82s26.15-21.64,37-33c10.83-11.34-45.98-337.61-52-363-6.16-25.97-18.77-47.01-32-55,13.56-29.02,38.52-111.69,28-145-6.04-19.13-5.23-21-23-32,4.23-9.73,10.9-10.55,14-19,2.27-6.19-7.44-19.24-5-29s13.45-42.17,15-48,11.06-7.34,13-12-9.55-11.34-8-16,12.83-5.34,14-10-9.17-14.34-8-19,9.33-16.67,7-26-13.84-44.45-22-46-57,19.84-64,28-41.67,97.56-44,103,3.89,8.78,0,15-9.06,4.95-11,10,1,16,1,16l-9,6s-48.01-13.87-70,28c-19.63-7-20.53-9.6-34-11-20.09-37.06-50.25-85.75-79-101s-87.67-28.78-94-29c-8.88-15.51-102.52-70.51-128-70C2399.51,1309.51,2362,1269,2362,1269ZM1040,2775l3-61h107s-78.58-34.78-87-127c-66.655-91.8-82.354-176.77-89-214-12.813-7.29-36.983-26.68-45-64-11.822-55.03-31.1-132.36-34-185-1.461-26.48,18.573-40.43,24-63-11.746-43.7-12.855-66.25-1-116s37.116-232.21,47-250,60.59-87.17,82-130c48.69-97.41,89.45-130.8,126-149,24.89-57.96,58.28-69.53,123-86s229-67,229-67l26,10s52.92-37.21,41-89c-9.66-42,22.63-72.94,64-80s134-17,134-17,5.26-80.01-7-103c-16.97,2.545-51.39-1.733-67-35-18.39-39.174-39.69-56.409-46-82s-20.93-53.815-15-109c4.56-22.5,14.64-54.135,29-63-0.16-30.182-1.22-28.823-1-48-518.93,21.986-866.08,126.553-945,156C738,1106.51,679.847,2155.85,1040,2775Z" transform="translate(-509.5 -216.312)"/>
      <path id="Car_Key_Pattern" data-name="Car Key Pattern" class="cls-4" d="M3288.45,790.634c-3.73,3.636-8.51,8.591-12.41,12.407-3.3,3.226-.74,11.859-4.12,15.183-1.26,1.239-7.05,9.234-9.65,9.65-4.85.776-18.31,4.534-20.7,6.869-7.17,7-23.23,23.39-30.33,30.328-27.46,26.83-27.64,26.738-40.03,38.853-20.81-14.966-41.73-24.929-54.67-24.446-36.13,1.349-190.18,141.062-196.3,186.212-6.5,48.02,83.65,138.18,131.68,131.69,45.04-6.09,184.7-152.75,186.54-201.814,0.6-15.846-9.44-34.488-24.2-52.113,11.06-11.28,18.52-19.382,30.21-31.373,2.74-2.819.2-14,2.73-16.567,1.83-1.856,14.9-1.536,19.32-5.49,3.58-3.205,9.35-9.286,11.03-11.028,8.04-8.31-4.52-6.723,11.01-22.076,16.12-15.929,38.17-37.282,56.29-54.778,0.71,0.286,1.45.575,2.15,0.859,0,59.2,5.08,210.21,1.37,409.29-3.26,3.35-7.12,7.31-11.83,12.12-6.93,7.1-23.32,23.16-30.32,30.33-2.34,2.39-6.09,15.85-6.87,20.7-0.41,2.6-8.41,8.39-9.65,9.65-3.32,3.38-11.95.81-15.18,4.11-3.81,3.91-8.77,8.69-12.4,12.41-3.29,3.36-1.01,17.55-4.11,20.7-4.1,4.18-14.64.06-17.94,4.11-13.59,16.68-21.83,24.28-28.24,31.48-4.08,14.59-7.2,33.58-4.33,35.9,0.64,0.52,2.55.82,5.13,0.95-0.08,3.08.23,5.27,1.08,5.96,2.86,2.31,30.58.43,34.59-3.28,2.36-2.18,54.97-57.15,86.42-88.98,5.71-5.77,9.08-7.67,11.48-8.19-6.3,205.2-22.7,449.61-61.81,693.55-15.57-9.37-30.08-15.1-39.95-14.73-36.13,1.35-190.18,141.06-196.3,186.22-4.32,31.86,33.94,82.28,74.2,110.7H2990l-10-82s26.15-21.64,37-33c7.08-7.41-14.74-149.37-32.38-253.91,2.03,0.29,3.77.62,7.33-2.83,1.75-1.68,7.84-7.45,11.05-11.04,3.96-4.42,3.66-17.49,5.52-19.32,2.57-2.54,13.74-.01,16.56-2.76,12-11.71,20.12-19.18,31.41-30.25,17.59,14.73,36.21,24.72,52.05,24.1,49.04-1.93,195.87-141.77,202.03-186.79a37.651,37.651,0,0,0,.31-4.29c0.01-.17.02-0.34,0.02-0.51q0.015-2.085-.18-4.26l-0.06-.75c-0.15-1.42-.35-2.86-0.62-4.33-0.05-.27-0.11-0.55-0.16-0.83-0.29-1.47-.63-2.97-1.04-4.48-0.07-.26-0.15-0.51-0.22-0.76-0.44-1.57-.92-3.15-1.48-4.75-0.05-.14-0.11-0.29-0.16-0.44-0.53-1.49-1.12-3-1.75-4.52l-0.36-.9q-0.96-2.25-2.06-4.54c-0.21-.43-0.41-0.85-0.62-1.29q-1.08-2.175-2.26-4.36c-0.28-.51-0.56-1.02-0.84-1.54-0.79-1.41-1.6-2.82-2.45-4.24-0.34-.56-0.69-1.13-1.04-1.69-0.73-1.18-1.47-2.35-2.24-3.53-0.52-.8-1.06-1.6-1.6-2.4-0.66-.98-1.34-1.96-2.03-2.94s-1.37-1.93-2.08-2.89c-0.67-.93-1.36-1.85-2.06-2.77-0.6-.79-1.21-1.59-1.82-2.38q-1.32-1.68-2.69-3.35c-0.71-.87-1.42-1.74-2.15-2.6-0.52-.62-1.05-1.23-1.58-1.85q-1.74-2.025-3.54-4.03c-0.39-.43-0.78-0.86-1.18-1.29q-2.07-2.265-4.21-4.49c-0.34-.36-0.68-0.71-1.02-1.06-1.54-1.57-3.1-3.13-4.68-4.66-0.27-.26-0.54-0.53-0.82-0.79-1.86-1.79-3.76-3.56-5.67-5.28-27.32-26.58-60.6-46.28-83.94-43.12-45.15,6.11-184.85,160.14-186.2,196.28-0.48,12.94,9.48,33.85,24.45,54.66-12.11,12.4-12.02,12.58-38.85,40.03-0.08.08-.17,0.18-0.25,0.26-3.15-17.34-5.46-29.4-6.44-33.52-6.16-25.97-18.77-47.01-32-55,13.56-29.02,38.52-111.69,28-145-6.04-19.13-5.23-21-23-32,4.23-9.73,10.9-10.55,14-19,2.27-6.19-7.44-19.24-5-29s13.45-42.17,15-48,11.06-7.34,13-12-9.55-11.34-8-16,12.83-5.34,14-10c0.98-3.94-6.19-11.42-7.77-16.47,20.7-20.02,38.14-36.76,39.34-38.07,3.71-4,5.55-31.73,3.22-34.6s-21.31.25-35.9,4.33c-3.17,2.82-6.41,5.99-10.46,9.81-3.76-8.4-7.91-15.33-11.43-16-8.16-1.55-57,19.84-64,28-6.08,7.09-33.06,75.54-41.55,96.91-2.34,2.34-4.44,4.43-6.06,6.01-27.46,26.83-27.64,26.74-40.04,38.85-20.81-14.96-41.72-24.92-54.66-24.44-8.45.31-23.35,8.2-41.3,20.67-18.34-30.13-40.76-60.52-62.39-72-28.75-15.25-87.67-28.78-94-29-3.03-5.29-15.91-15.16-32.58-25.86,4.24-.16,9.6.28,11.43-1.5,11.99-11.69,20.09-19.15,31.37-30.21,17.62,14.77,36.26,24.8,52.11,24.21,49.06-1.84,195.7-141.48,201.79-186.52,6.49-48.03-83.67-138.19-131.68-131.68-45.15,6.11-184.85,160.14-186.2,196.28-0.48,12.93,9.48,33.85,24.45,54.66-12.12,12.4-12.02,12.58-38.85,40.03-2.25,2.3-5.5,5.55-9.09,9.13-21.19-10.77-40.98-18.74-50.75-18.54-26.49-26.49-64-67-64-67s9.6-100,35-125c20.84-20.51,24.67-80.98,41-130,8.47-25.42,13.9-40.064,17.12-53.021,31.19-30.435,69.78-67.4,71.6-69.368,3.71-4,5.55-31.738,3.22-34.606s-21.31.251-35.9,4.336c-7.2,6.407-14.8,14.65-31.48,28.24-3.79,3.083-.47,12.441-3.38,17.021,1.13-42.062,6.74-120.02,6.82-128.6,38.59,0.9,87.68-2.428,127-31,39.98-24,46.15-58.82,47.6-85.539q5.16-4.751,10.36-9.774c71.1,5.1,149.11,15.638,227.23,29.348,3.3,5.72,7.12,11.608,11.35,17.494-12.11,12.4-12.02,12.577-38.85,40.031-6.93,7.1-23.32,23.16-30.32,30.325-2.34,2.39-6.09,15.853-6.87,20.7-0.42,2.6-8.41,8.389-9.65,9.649-3.32,3.38-11.96.814-15.18,4.115-3.82,3.9-8.77,8.685-12.41,12.406-3.29,3.366-1,17.55-4.1,20.705-4.11,4.175-14.64.052-17.95,4.111-13.59,16.68-21.83,24.275-28.23,31.474-4.09,14.593-7.2,33.581-4.34,35.9s30.6,0.486,34.61-3.219c2.35-2.178,54.89-57.077,86.3-88.857,15.35-15.532,13.76-2.971,22.07-11.008,1.74-1.684,7.82-7.445,11.03-11.027,3.95-4.419,3.63-17.5,5.49-19.322,2.57-2.53,13.74.015,16.56-2.732,11.99-11.689,20.09-19.145,31.37-30.206,17.63,14.766,36.27,24.8,52.11,24.207,18.11-.679,49.5-20.134,82.22-46.666,94.76,22.268,180.56,46.748,242.97,68.652C3301.08,788.97,3291.18,787.959,3288.45,790.634ZM754.069,1037.87c-5.212.71-11.7,3.41-19.069,7.65,0.944-102,3-185.449,3-242.52,23.823-8.889,72.1-24.624,142.147-42.864-1.193,1.2-2.273,2.292-3.188,3.228-2.335,2.39-6.092,15.853-6.867,20.7-0.416,2.6-8.41,8.389-9.649,9.649-3.324,3.38-11.957.814-15.182,4.115-3.816,3.905-8.77,8.685-12.406,12.406-3.289,3.366-1,17.55-4.105,20.705-4.1,4.175-14.638.052-17.944,4.111-13.589,16.68-21.831,24.275-28.237,31.474-4.084,14.593-7.2,33.581-4.334,35.9s30.6,0.485,34.6-3.219c2.354-2.178,54.889-57.077,86.3-88.857,15.351-15.532,13.765-2.971,22.074-11.008,1.741-1.684,7.823-7.445,11.027-11.027,3.954-4.419,3.632-17.5,5.489-19.322,2.57-2.53,13.747.015,16.565-2.732,11.99-11.689,20.091-19.145,31.37-30.206,17.628,14.766,36.268,24.8,52.108,24.207,19.69-.739,55.1-23.683,90.84-53.792,132.56-23.5,294.17-44.728,479.96-55.7-15.57,19.2-26.13,36.142-27.65,47.3C1576.6,730,1615,780.542,1655.34,808.933,1658.67,833.478,1666,850.774,1670,867c6.31,25.591,27.61,42.826,46,82,15.61,33.267,50.03,37.545,67,35,12.26,22.99,7,103,7,103s-40.17,4.31-79.42,9.27c9.79-13.91,16.12-25.98,17.29-34.59,3.92-28.58-26.36-72.006-61.64-101.1-24.75-21.078-52.34-35.392-72.5-32.661-45.15,6.114-184.85,160.143-186.19,196.273-0.48,12.94,9.48,33.86,24.44,54.67-12.11,12.4-12.02,12.58-38.84,40.03-6.94,7.1-23.33,23.16-30.33,30.33-2.33,2.39-6.09,15.85-6.87,20.7-0.41,2.6-8.41,8.39-9.64,9.65-3.33,3.38-11.96.81-15.19,4.11-3.81,3.91-8.77,8.69-12.4,12.41-3.29,3.36-1.01,17.55-4.11,20.7-4.1,4.18-14.64.05-17.94,4.11-3.58,4.39-6.77,8.13-9.67,11.42-58.85,15.36-90.29,28.48-113.99,83.68-36.55,18.2-77.31,51.59-126,149-21.41,42.83-72.116,112.21-82,130-9.842,17.71-34.925,198.66-46.844,249.33-1.249,1.33-2.428,2.6-3.546,3.86-4.084,14.59-7.2,33.58-4.334,35.9a1.934,1.934,0,0,0,.431.24c-2.887,26.15.133,46.31,8.293,76.67-5.427,22.57-25.461,36.52-24,63,1.29,23.39,5.815,51.65,11.479,80.67-1.838,1.55-3.8,3.19-5.913,4.91-4.059,3.3.063,13.84-4.112,17.94-3.155,3.1-17.34.82-20.706,4.11-3.721,3.63-8.5,8.59-12.407,12.4-3.3,3.23-.736,11.86-4.117,15.19-1.26,1.24-7.047,9.23-9.65,9.65-0.919.14-2.15,0.4-3.555,0.73-39.033-158.75-64.751-323.94-81.531-484.79,52.618-21.66,175.03-153.04,176.755-198.96,0.6-15.84-9.44-34.48-24.206-52.11,11.062-11.28,18.519-19.38,30.209-31.37,2.748-2.82.2-14,2.733-16.57,1.828-1.86,14.9-1.53,19.324-5.49,3.582-3.2,9.343-9.29,11.028-11.03,8.038-8.31-4.524-6.72,11.009-22.07,31.78-31.42,86.69-83.96,88.87-86.31,3.7-4,5.54-31.74,3.22-34.61s-21.31.26-35.91,4.34c-7.2,6.41-14.79,14.65-31.48,28.24-4.05,3.31.07,13.84-4.11,17.95-3.15,3.1-17.338.81-20.7,4.1-3.721,3.64-8.5,8.59-12.407,12.41-3.3,3.22-.736,11.86-4.117,15.18-1.26,1.24-7.047,9.24-9.65,9.65-4.847.78-18.312,4.54-20.7,6.87-7.165,7-23.228,23.39-30.328,30.33-27.457,26.83-27.637,26.74-40.035,38.85-20.811-14.96-41.726-24.93-54.667-24.44-13.441.5-43.2,20.15-75.588,46.95-3.363-63.83-5.6-125.82-7.018-185.18,62.075-42.5,144.507-128.45,149.038-161.98C892.242,1121.53,802.084,1031.37,754.069,1037.87Zm354.451,153.98c45.04-6.08,184.69-152.74,186.53-201.8,0.6-15.846-9.44-34.488-24.2-52.113,11.06-11.28,18.52-19.382,30.21-31.373,2.74-2.819.2-14,2.73-16.567,1.83-1.857,14.9-1.536,19.32-5.49,3.59-3.2,9.35-9.286,11.03-11.028,8.04-8.31-4.52-6.723,11.01-22.076,31.78-31.413,86.69-83.954,88.87-86.308,3.7-4,5.54-31.737,3.22-34.605s-21.31.251-35.91,4.336c-7.2,6.407-14.79,14.649-31.47,28.24-4.06,3.307.06,13.841-4.12,17.945-3.15,3.1-17.34.818-20.7,4.107-3.72,3.636-8.51,8.591-12.41,12.407-3.3,3.226-.74,11.859-4.12,15.183-1.26,1.239-7.04,9.234-9.65,9.65-4.84.775-18.31,4.534-20.7,6.869-7.16,7-23.23,23.39-30.33,30.328-27.45,26.83-27.63,26.738-40.03,38.853-20.81-14.966-41.73-24.929-54.67-24.446-36.13,1.349-190.18,141.063-196.3,186.213C970.328,1108.19,1060.49,1198.35,1108.52,1191.85Zm300.74,95.9c1.74-1.69,7.83-7.46,11.04-11.04,3.96-4.43,3.66-17.5,5.52-19.33,2.57-2.53,13.74-.01,16.56-2.76,12.01-11.7,20.12-19.17,31.41-30.25,17.59,14.73,36.21,24.73,52.05,24.11,15.11-.6,39.52-14.3,66.24-34.29C1584.2,1249.64,1551,1273,1551,1273l-26-10s-76.46,23.52-145.6,43.69c2.69-2.75,5.3-5.4,7.77-7.9C1402.55,1283.24,1400.94,1295.8,1409.26,1287.75ZM2979,2870c-33.8-58.71-61.59-108.97-81.99-146.57,4.36-.34,10.58.37,12.59-1.59,12.01-11.7,20.12-19.17,31.41-30.25,17.59,14.73,36.21,24.73,52.05,24.11,23.66-.93,70.08-33.97,112.48-72.96C3069.01,2725.17,3027.09,2801.75,2979,2870Zm-107.89-194.92C2862.54,2658.86,2858,2650,2858,2650l25.41-29.6a195.416,195.416,0,0,0,15.79,25.68C2888.98,2656.54,2887.45,2658.3,2871.11,2675.08Zm-1816.77,17.55c10.9-.41,26.64-7.64,44.57-19.11,24.06,28.5,51.09,40.48,51.09,40.48H1043l-3,61q-26.625-45.765-50.235-94.53c3.947-3.78,7.949-7.62,12.465-12.05C1019.85,2683.19,1038.49,2693.23,1054.34,2692.63Zm786.5,531.78c-1.55,3.91-.13,10.58-3.01,13.41-1.26,1.24-7.05,9.24-9.65,9.65-4.85.78-18.31,4.54-20.7,6.87-7.17,7-23.23,23.39-30.33,30.33-27.46,26.83-27.64,26.74-40.04,38.85-20.81-14.96-41.72-24.93-54.66-24.44-13.65.51-44.11,20.75-77.07,48.18-61.7-41.77-119.07-84.06-167.38-123.26C1479.77,3224,1639.57,3224.19,1840.84,3224.41Zm381.08,30.47c11.95-1.61,30.54-13.11,51.46-30.06,90.22,0.07,178.92.13,260.99,0.16,3.24,5.53,6.93,11.22,11.02,16.91-12.11,12.39-12.02,12.57-38.85,40.03-6.93,7.1-23.32,23.16-30.32,30.32-2.34,2.39-6.09,15.86-6.87,20.7-0.42,2.61-8.41,8.39-9.65,9.65-3.32,3.38-11.95.82-15.18,4.12-3.82,3.9-8.77,8.68-12.41,12.4-3.28,3.37-1,17.55-4.1,20.71-4.11,4.17-14.64.05-17.94,4.11-8.03,9.85-14.18,16.52-19.2,21.82-51.68,31.47-104.67,61.82-155.88,89.11a37.609,37.609,0,0,0,2.2-8.06c3.91-28.58-26.37-72.01-61.65-101.1-24.74-21.08-52.33-35.39-72.49-32.66-39.9,5.4-153.6,126.29-180.45,179.28-44.65-21.43-90.97-46.06-137.32-72.63,11.46-17.91,18.68-33.63,19.09-44.53,0.6-15.84-9.44-34.48-24.21-52.11,11.07-11.28,18.52-19.38,30.21-31.37,2.75-2.82.21-14,2.74-16.57,1.82-1.85,14.9-1.53,19.32-5.49,3.58-3.2,9.34-9.28,11.03-11.03,8.04-8.31-4.53-6.72,11.01-22.07,15.28-15.11,35.9-35.09,53.45-52.04,78.21,0.08,161.03.17,244.5,0.24C2176.37,3244.41,2202.57,3257.5,2221.92,3254.88ZM875.862,2297.91c11.968-11.83,27.213-26.65,41.688-40.66,4.055,18.34,8.059,35.96,11.45,51.75,8.017,37.32,32.187,56.71,45,64,3.787,21.21,10.532,57.94,27.95,102.59-31.609,35.65-57.608,71.38-62.764,89.82-30.6-77-56.714-157.74-78.975-240.62,2.032-2.07,3.821-3.95,4.642-4.8C872.891,2311.68,860.329,2313.26,875.862,2297.91Zm2353.708-29.62c-16.71,68.44-35.7,135.6-57.26,200.53a231.342,231.342,0,0,0-38.87-41.02c-18.98-16.18-39.64-28.36-57.33-31.92l86.01-100.21a48.342,48.342,0,0,0,17.71,1.31C3191.44,2295.41,3209.36,2284.47,3229.57,2268.29Z" transform="translate(-509.5 -216.312)"/>
      <path id="Arm" class="cls-5" d="M995,2137c26.73-76.41,205.64-274.69,634-156,8.67,16.08,15.82,86.94,14.96,111.69,0,0-281.66-143.08-527.96,38.31,5.65-16.23,76.54-80.59,109-106-143.21,30.63-186.84,114.25-218,210C993.493,2204.67,989.014,2148.12,995,2137Z" transform="translate(-509.5 -216.312)"/>
    </g>
    <g id="Character_and_name" data-name="Character and name">
      <path id="auto_locksmith" data-name="auto locksmith" class="cls-2" d="M1180.25,3176.83h50.51l-55.69-152.82h-55.26l-55.9,152.82h50.29l7.56-23.09h50.94Zm-46.84-59.14,13.82-42.52,13.81,42.52h-27.63Zm109.44-93.68v86.13q0,22.005,8.42,37.34a55.292,55.292,0,0,0,23.42,23.09q15,7.77,34.43,7.78a78.448,78.448,0,0,0,35.18-7.78,58.054,58.054,0,0,0,24.83-23.2q9.06-15.435,9.06-37.23v-86.13h-47.7v86.13q0,10.575-4.97,16.72-4.965,6.165-15.32,6.16t-15-6.16q-4.65-6.15-4.64-16.72v-86.13h-47.71Zm149.59,0V3062h40.15v114.83h47.92V3062h40.58v-37.99H1392.44Zm218.23,154.34a78.9,78.9,0,0,0,39.39-10.15,75.105,75.105,0,0,0,28.49-28.06q10.47-17.91,10.47-40.37,0-22.44-10.47-40.36a74.6,74.6,0,0,0-28.38-27.95,82.938,82.938,0,0,0-79.11,0,75.1,75.1,0,0,0-28.6,27.95q-10.59,17.925-10.58,40.36,0,22.455,10.58,40.37a75.819,75.819,0,0,0,28.6,28.06,79.29,79.29,0,0,0,39.61,10.15h0Zm0-44.69q-14.475,0-22.24-9.17t-7.77-24.72q0-15.75,7.77-24.93t22.24-9.17q14.235,0,22.01,9.17t7.77,24.93q0,15.555-7.77,24.72-7.77,9.18-22.01,9.17h0Zm184.55-109.65H1747.3v152.82h94.11v-36.26h-46.19V3024.01Zm137.93,154.34a78.911,78.911,0,0,0,39.4-10.15,75.105,75.105,0,0,0,28.49-28.06q10.47-17.91,10.47-40.37,0-22.44-10.47-40.36a74.552,74.552,0,0,0-28.39-27.95,82.938,82.938,0,0,0-79.11,0,75.169,75.169,0,0,0-28.6,27.95q-10.575,17.925-10.57,40.36,0,22.455,10.57,40.37a75.89,75.89,0,0,0,28.6,28.06,79.317,79.317,0,0,0,39.61,10.15h0Zm0-44.69q-14.46,0-22.23-9.17t-7.77-24.72q0-15.75,7.77-24.93t22.23-9.17q14.25,0,22.02,9.17t7.77,24.93q0,15.555-7.77,24.72-7.77,9.18-22.02,9.17h0Zm93.47-33.45q0,22.665,9.17,40.36a66.241,66.241,0,0,0,26.23,27.52q17.04,9.825,40.15,9.82,19.845,0,35.5-7.44a65.629,65.629,0,0,0,25.48-21.05,76.261,76.261,0,0,0,13.05-31.73h-50.51a27.218,27.218,0,0,1-9.82,11.76,25.773,25.773,0,0,1-14.57,4.21q-12.09,0-19.1-9.06t-7.02-24.39q0-15.33,7.02-24.4t19.1-9.06a25.773,25.773,0,0,1,14.57,4.21,27.275,27.275,0,0,1,9.82,11.76h50.51a76.261,76.261,0,0,0-13.05-31.73,65.605,65.605,0,0,0-25.48-21.04q-15.645-7.455-35.5-7.45-23.1,0-40.15,9.82a66.3,66.3,0,0,0-26.23,27.52q-9.18,17.7-9.17,40.37h0ZM2345,3176.83l-56.12-79.65,52.67-73.17h-54.18l-43.82,64.32v-64.32h-47.92v152.82h47.92v-66.26l44.47,66.26H2345Zm75.55,1.52q18.135,0,31.3-6.26t20.07-17.38a46.614,46.614,0,0,0,6.91-25.15q0-13.38-6.91-22.23a50.578,50.578,0,0,0-16.29-13.82,209.525,209.525,0,0,0-23.85-10.36q-12.525-4.74-18.24-8.09-5.73-3.345-5.72-8.53a7.978,7.978,0,0,1,1.94-5.72,6.552,6.552,0,0,1,4.96-2.05,10.392,10.392,0,0,1,7.34,2.81c2.02,1.87,3.09,4.96,3.24,9.28h51.59q-0.87-23.52-17.38-36.48t-44.57-12.95a78.748,78.748,0,0,0-29.9,5.4,47.181,47.181,0,0,0-20.93,15.86q-7.665,10.47-7.67,25.36-0.21,14.895,6.69,24.4a47.09,47.09,0,0,0,16.52,14.46,194.649,194.649,0,0,0,24.28,10.14q12.3,4.32,18.13,7.67t5.83,8.74a6.426,6.426,0,0,1-2.7,5.72,11.445,11.445,0,0,1-6.58,1.83q-10.575,0-11.66-13.16h-50.94q1.515,24.825,19.32,37.66,17.8,12.855,45.22,12.85h0Zm202.47-154.34-32.81,91.74-33.67-91.74h-58.71v152.82h47.92v-76.19l23.52,76.19h41.02l23.53-76.19v76.19h47.7V3024.01h-58.5Zm82.24,0v152.82h47.92V3024.01h-47.92Zm63.03,0V3062h40.15v114.83h47.92V3062h40.58v-37.99H2768.29Zm237.23,0v55.04h-45.55v-55.04h-47.92v152.82h47.92v-59.57h45.55v59.57h47.92V3024.01h-47.92Z" transform="translate(-509.5 -216.312)"/>
      <path id="SKK" class="cls-5" d="M1333.74,2972.81q79.44,0,137.47-26.34,58.02-26.325,88.82-72.75,30.795-46.41,30.8-104.44,0-50.9-24.11-86.15-24.09-35.25-57.57-56.68t-84.36-45.53q-44.64-21.42-65.16-36.15-20.55-14.73-20.54-34.37,0-14.265,9.82-23.21,9.81-8.91,25-8.92,16.95,0,26.78,9.37,9.81,9.375,9.82,26.33c0,2.39-.6,7.14-1.79,14.29h213.35q1.785-17.85,1.79-25,0-55.335-30.8-95.96-30.8-40.605-84.8-62.04-54.03-21.435-122.75-21.43-76.785,0-136.58,25t-93.28,73.64q-33.48,48.675-33.48,115.6,0,50.895,24.11,84.81t56.68,53.56q32.58,19.65,83.47,41.06,46.395,19.65,67.39,33.92,20.97,14.295,20.98,35.71,0,15.2-10.71,23.21-10.71,8.04-26.78,8.03-25.9,0-37.05-13.39-11.175-13.38-8.48-41.06H1081.11q-1.8,17.865-1.78,26.78,0,89.28,69.18,135.69,69.165,46.425,185.23,46.42h0Zm1025.68-638.26H2135.36l-228.53,266.01,47.31-266.01H1755.97l-111.58,632.01h198.17l48.2-274.95,135.69,274.95h235.67l-174.97-329.4Zm682.89,0H2818.25l-228.52,266.01,47.31-266.01H2438.86l-111.58,632.01h198.17l48.21-274.95,135.68,274.95h235.67l-174.97-329.4Z" transform="translate(-509.5 -216.312)"/>
      <path id="Line" class="cls-6" d="M2525.45,2966.56H2327.28l5.12-28.99c68.17-6.48,136.44-15.46,202.98-27.63Zm-499,0-7.01-14.2c73.88-.43,151.78-2.77,230.82-8.12l11.86,22.32H2026.45Zm-183.89,0H1644.39l4.53-25.66c53.83,3.27,120.85,6.91,196.52,9.21Zm866.78,0-42.33-85.79c69.56-18.42,135.56-41.24,195.58-69.38l75.89,142.88q1.2,6.51,1.94,12.29H2709.34ZM1586.15,2812.64a181.089,181.089,0,0,1-26.12,61.08q-30.795,46.425-88.82,72.75-58.035,26.34-137.47,26.34-116.055,0-185.23-46.42-69.195-46.41-69.18-135.69,0-8.91,1.78-26.78h37.18C1092.35,2918.56,1425.04,3073.21,1586.15,2812.64Z" transform="translate(-509.5 -216.312)"/>
      <path id="White_Character" data-name="White Character" class="cls-2" d="M2960.17,2150.56c-33,23.54-193.61,49.84-228.83,47.26-0.32-9.69-.79-12.47-1.07-19.34,2.48-.77,12.29-0.75,17.19-1.07,82.34-5.4,175.85-32.78,186.93-39.74,21.21-13.33-8.82-136.19-8.82-136.19l-17.38-57.01c-2.11-.53,9.29-47.63-6.03-66.74,7.7-3.27,8.13-72.48-8.59-88.08-0.36-10.73,3.07-15.15-3.23-24.7,26.33-5.26,31.43,42.78,33.15,62.9,3.95,46.4,34.16,202.76,39.91,260.41,1.8,18.1,6.33,45.14,6.44,49.41C2969.98,2142.52,2966.63,2148.05,2960.17,2150.56Zm-5.08-724.14c-1.73,6.05-7.92,6.91-8.86,9.82s0.85,6.33,1.15,10.59c0.31,4.29-8.66,5.29-9.8,9.24-6.51,22.75-18.13,51.24-24.97,66.85-1.77,4.03,7.26,9.87,6.13,14.25-0.35,1.37-1.32,5.85-2.36,7.93-2.86,5.72-5.89,5.15-12.12,9.14,1.31,2.42-2.13,7-2.34,9.74-0.33,4.1,2.52,6.59,1.6,11.26-0.07.33-.14,0.66-0.21,1,16.5,11.11,29.13,23.74,29.89,35.55,1.82,28.17-17.02,85.72-29.27,108.86s-20.31,40.79-25.76,36.29c-2.23-1.84-5.21-5.29-3.51-8.19a377.02,377.02,0,0,0,30.44-64.38c12.01-33.07,16.54-51.5,18.74-66.73,2.76-19.21-89.75-69.04-101.86-51.5-8.72,12.61-16.59,32.32-23.42,49.16s-30.44,97.16-30.44,97.16-6.88-.11-10.54,0c-3.04.09,29.56-114.58,57.37-151,3.23-4.23-11.89-.22-16.39,2.34-15.45,14.8-55.4,147.21-56.36,146.71a9.813,9.813,0,0,1-5.69-8.58s32.17-117.66,51.51-141.64c10.7-13.27,23.28-19.73,45.66-15.22a114.039,114.039,0,0,1,12.58,3.43,13.21,13.21,0,0,1,.52-1.31c0.77-1.74,7.24-4.61,6.13-7.22-0.87-2.09,1.08-7.65,1.85-10.12,0.78-2.49,7.91-5.45,7.26-8.36-0.68-3.01-3.78-8.59-2.58-13.88,0.64-2.79,9.5-7.07,12.88-10.53,3.03-3.11-.73-6.88,1.17-11.71,3.12-7.93,41.75-98.67,44.49-100.67,6.88-5.01,23.83-18.98,28.1-17.56s8.66,16.73,10.54,25.75c-0.1,4.92-3.81,14.98-5.13,20.05C2950.17,1418.04,2956.81,1420.42,2955.09,1426.42Zm-14.29-42.23c-1.89.93-5.01,7.45-5.92,10.56,0,0-34.04,72.97-52.02,122.23-0.84,2.29,3.13,9.52,2.34,11.7-1.07,2.94-6.06,2.04-7.03,4.68-5.32,14.58-7.02,21.07-7.02,21.07s10.44,16.12,18.73-8.19c0.82-2.41,6.33-3.67,8.43-9.48,1.51-4.17-2.47-14.16-1.76-16.13,6.25-17.41,21.5-52.8,28.46-70.38,1.45-3.68,6.94-3.46,8.19-7.02,1.44-4.11-3.67-5.55-2.34-9.37,7.85-22.42,12.44-39.97,12.73-41.16C2944.18,1390.32,2942.7,1383.26,2940.8,1384.19Zm-73.93,348.62c-22.75-10.63-59.42-21.13-79.45-26.49,2-3.17,4.52-5.46,7.63-5.57,11.23-.39,54.09,14.41,70.25,26.93C2866.74,1728.8,2867.08,1730.69,2866.87,1732.81Zm-44.78-108.51c-4.17-4.73-4.46-9.88-2.66-16.34,0,0,4.4-21.26,14.73-24.88,11.3-3.95,55.23,17.95,70.94,32.22,3.77,3.43,1.11,17.13,0,19.9-4.45,11.15-5.85,15.62-9.36,17.56-7.95,4.38-24.47-5.93-42.92-13.84C2839.21,1633.08,2825.23,1627.86,2822.09,1624.3Zm54.54,15.12c1.27-2.84,5.62-12.6,6.48-14.51,0.2-.45-1.3-1.51-3.71-2.84,1.03-2.31,2.59-5.8,2.59-5.8s3.63-7.7-7.42-12.63-13.8,2.82-13.76,3.58c0.05,1.16,2.93,1.74,3.76,1.68s1.1-5.82,8.99-2.3c7.11,3.17,4.32,8.15,4.32,8.15s-1.45,3.26-2.37,5.31c-8.7-4.26-21.83-9.52-22.29-8.5-0.69,1.56-5.24,11.75-6.47,14.51S2875.36,1642.25,2876.63,1639.42Zm-3.14,70.7c-5.88,3.49-21.39-4.98-40.03-12.43-13.75-5.5-27.85-10.37-31.08-13.85-4.29-4.63-3.12-11.7-1.48-18.2,0,0,3.11-22.33,14.05-22.24,10.83,0.08,54.19,14.22,70.25,28.09,3.85,3.33,2.39,10.4,1.6,13.28C2882.45,1700.64,2880.92,1705.7,2873.49,1710.12Zm-16.07-29.22c0.91-2.34,2.28-5.85,2.28-5.85s3.17-7.65-8.87-12.48c-11.92-4.77-14.26,3.51-14.26,3.51s-1.98,4.01-2.62,5.33c-2.97-.95-5-1.42-5.16-1.05-0.66,1.55-5.02,11.8-6.23,14.62-1.21,2.84,32.17,16.89,33.33,13.88,1.14-2.98,5.02-13.11,5.77-15.07C2861.83,1683.33,2860.13,1682.25,2857.42,1680.9Zm-7.43-15.43c7.76,3.12,5.21,8.06,5.21,8.06s-1.29,3.27-2.1,5.33c-4.2-1.87-9.28-3.92-13.71-5.55,0.39-1.47,1.26-5.58,1.26-5.58S2841.44,1662.03,2849.99,1665.47Zm-10.74,8.32a21.8,21.8,0,0,0-5.49-1.98c0.03-.05.09-0.19,0.19-0.4,1.59,0.51,3.45,1.16,5.44,1.9A4.9,4.9,0,0,1,2839.25,1673.79Zm-180.96,80.42c-6.23.18-17.01-.09-17.19-2.15a8.828,8.828,0,0,1,1.07-4.3s8.18-3.25,19.34,0,15.52,5.37,11.82,7.52S2664.51,1754.02,2658.29,1754.21Zm163.3,33.3c-5.12-.72-17.5-3.7-22.57-4.3s-35.98-7.45-40.82-8.59c-10.61-2.5-17.72-3.14-23.64-4.3-5.79-1.14-5.4-4.3,0-4.3s52.29,5.44,59.09,8.6,27.09,3.28,31.16,8.59C2826.84,1785.86,2828.42,1788.47,2821.59,1787.51Zm-61.24,131.04c41.16,15.57,41.48,16.21,51.57,23.63s17.51,10.94,12.89,13.96-16.61-7.36-34.38-12.89a386.76,386.76,0,0,1-50.49-19.33c-16.89-7.89-28.84-12.37-37.61-16.11s-15.13-9.83-9.66-10.74C2692.67,1897.07,2719.19,1902.98,2760.35,1918.55Zm-78.43-116.01c12.89-1.04,41.75,8.13,59.09,18.26,16.18,9.46,70.74,27.19,84.87,34.38,14.67,7.46,20.26,13.17,16.12,15.03s-48.65-22.53-64.46-25.78c-16.17-3.31-42.74-15.5-59.09-21.48s-27.36-8.46-45.12-10.74C2668.72,1811.62,2669.04,1803.59,2681.92,1802.54ZM2712,1586.65c-11.19-.25,5.73,43.66-34.37,82.7,0.76,7.25,18.81,6.83,24.7,6.45,3.88-.25-2.37,8.68-9.66,10.74-5.24,1.48-27.08.89-34.38,1.07s-19.54,4.33-16.12,9.67c6.61,10.29,91.12,18.29,95.62,19.33,66.8,15.53,140.27,19.34,133.21,67.67-1.33,9.16,10.89,15.13,12.9,27.93,3.5,22.35,4.58,48.53-4.3,69.82-5.2,12.46,10.41,15.98,7.52,40.81s-4.45,41.27-18.26,60.16c3.91,36.6,13.8,61.35-26.86,104.18-42.82,45.1-113.8,45.82-141.81,9.67-30.33,33.96-74.55,94.77-153.63,76.26-13.37,43.09-42.23,83.96-57.17,103.27l-35.79.06c23.87-27.31,42.66-69.81,68.25-107.62-17.52-11.86-22.59-13.14-16.12-23.63s12.82-4.75,18.27-1.08,39.24,22.24,67.68,5.37,111.68-90.19,124.62-106.33c-5.33-14.42-11.07-30.89-9.67-41.89,9.34,13.47,22.13,32.41,29.01,37.59,15.5,2.08,46.69,1.87,52.64,2.15,0.78,6.82-4.87,15.4-8.59,16.11s-47.27,0-47.27,0-14.83,22.16-17.19,24.7c9.36,9.45,17.67,18.71,44.04,18.26,24.12-.4,83.31-22.27,90.25-56.92s6.4-51.65,4.3-62.3,4.31-4.97,7.52-9.67,16.38-46.79,2.14-81.63c-4.14-10.15,6.48-15.84,7.52-21.49,0.88-4.75,5.33-29.9-1.07-54.78-1.21-4.69-11.17-12.09-12.89-16.11-1.65-3.86,2.25-11.64,1.07-15.03-6.58-18.93-11.02-29.98-59.09-37.6-56.69-8.98-128.13-28.86-153.62-35.44-13.26-3.43-22.91.99-35.46,12.88-23.69,22.47-59.01,37.81-74.13,55.86-13.19,15.76-34.35,53.07-49.42,70.89s-31.36,34.27-35.45,37.59-6.07,6.79-2.15,10.75,47.76,37.8,73.06,141.78c0.81,3.35-1.01,13.05-3.23,12.89-1.78-.13-4.27-6.28-6.44-15.04-6.03-24.26-41.24-93.02-77.35-123.52-8.13-6.87-18.26-3.06-20.42,11.81,6.5,17.4,18.83,37.64,20.42,47.26,1.02,6.2,1.13,13.61,0,13.97-1.7.54-4.85-7.96-10.75-18.26-10.71-18.71-22.11-29.72-31.15-32.23s-10.3,1.32-5.37,8.6,58.77,125.45,62.31,162.19c0.44,4.54-3.88,12.92-9.67-7.52s-63.51-130.14-77.35-145.01c-10.05,4.1-69.59,23.14-77.35,24.71,7.69,11.49,26.4,47.34,32.23,75.19,1.33,6.4-3.36,3.72-8.6-9.67s-29.68-57.32-34.38-60.15a7.956,7.956,0,0,0-8.59,0s61.31,117.73,81.65,213.75c4.52,21.35,17,54.87,29.16,78.74l-28.28.04c-20.45-43.26-24.76-75.71-41.71-135.71-18.57-65.73-51.44-134.78-67.68-157.89-3.99-5.69-12.11-16.35,4.3-20.41s92.29-15.91,112.8-37.6c5.86-6.19,6.46-12.59,18.26-11.81s27.94-2.15,27.94-2.15-4.32-12.01,2.15-21.48,10.69-12.01,19.33-11.82,19.79-9.82,27.94-19.33,66.74-96.76,82.72-107.41,37.18-27.85,75.2-56.93,70.45-44.61,76.28-77.34,1.24-48.57,15.04-52.63c19.37-5.7,51.86,8.55,58.92,29.61-4.48,9.85-9.41,19.37-13.58,27.03C2742.45,1602.93,2732.47,1588.12,2712,1586.65Zm-412.54,179.37s35.44-30.09,68.76-65.52c15.06-16.02,26.25-30.35,30.08-38.67,4.77-10.36,11.07-5.09,6.45,11.82-6.02,22.02-14.68,30.43-27.94,41.89s-15.73,15.44-36.52,32.22S2282.25,1789.57,2299.46,1766.02Zm88.1-249.19,5.37-13.97s49.56,35.61,59.09,41.9c12.85,8.47,17.56,10.43,25.78,17.18,0,0,13.07,20.22,16.12,24.71-14.36-11.72-32.03-20.64-44.05-29.01C2440.47,1551.11,2387.56,1516.83,2387.56,1516.83Zm53.71,287.86c-9.16,3.77-57.66,16.38-58.01,29-0.39,14.05-4.8,37.12-13.97,33.3,0,0-9.13-36.2-6.44-41.89s12.93-27.02,112.8-42.96C2495.48,1782.85,2450.44,1800.92,2441.27,1804.69Zm235.28-257.79c-2.13,2.65-36.76-53.83-50.49-59.07s-59.73-22.16-58.02-19.34c2.76,4.53,13.15,19.59,19.34,21.49s23.5,5.94,34.38,22.55,12.47,17.53,12.89,19.34-20.89-13.03-36.53-13.97-21.6-3.66-31.15-13.96-82.76-101.09-147.18-105.26c0,0,48.97,47.78,64.46,79.48s38.7,96.15,36.52,118.15c-15.13-8.38-62.36-119.12-74.13-131.04-13.5-5.65-41.29-4.03-52.64,10.74-9.1,11.85-28.21,66.6-74.13,147.16s-67.73,136.2-64.46,181.52c2.28,31.48,10.75,113.86,10.75,113.86s-19.68-87.98-32.23-103.12-72.66-94.13-89.17-142.85c-23.51-69.35-17.43-124.09-15.04-124.6,4.48-.97,22.63,143.34,81.65,205.15,4.29,4.51,29,32.23,29,32.23s-6.73-40.99,12.9-84.86c15.67-35.03,39.69-66.72,56.94-99.89,20.59-39.62,34.5-80.12,53.71-113.86,21.74-38.18,45.12-50.7,70.91-42.96-16.19-26.58-108.44-121.9-139.67-151.45,10.23-18.63,15.59-27.09,20.42-54.78,3.4-19.54,1.81-26.74,9.67-41.89,11.14-21.49,18.7-37.26,29-52.63l13.97-15.04c-5.22,12.91-21.7,43.95-22.56,46.18-8.94,23.09-14.79,62.47-18.27,81.64s-3.22,24.7-3.22,24.7,62.77,67.11,66.61,71.97c10.45,13.22,17.77,12.24,24.71,12.89,16.69,1.56,78.45,22.64,117.1,65.52,18.5,4.36,71.42,17.47,81.65,21.48,11.66,4.57,23.6,8.99,31.27,17.61a700.488,700.488,0,0,1,54.68,70.47S2682.5,1539.51,2676.55,1546.9ZM2084.18,309.089a132.579,132.579,0,0,0,14.57,5.611,196.873,196.873,0,0,1,18.87,7.269,61.614,61.614,0,0,1,14.65,9.514,36.932,36.932,0,0,1,10.36,14.7c2.61,6.679,3.06,12.838,1.31,18.747s-5.69,11.046-11.9,15.5-14.44,7.786-24.65,9.852c-14.92,3.056-27.8,2.638-38.44-2.378-10.67-4.921-17.49-14.4-20.64-26.444-0.32-1.2-.69-3.015-1.11-5.4,12.94-2.334,26.07-4.319,39.22-5.952,0.85,3.489,2.25,6.029,4.23,7.544s4.6,2.056,7.86,1.638a6.821,6.821,0,0,0,4.52-2.138q1.485-1.746.48-4.547c-0.94-2.635-3.05-4.672-6.3-6.141a99.722,99.722,0,0,0-14.79-4.813,171.923,171.923,0,0,1-17.99-5.547,47.736,47.736,0,0,1-13.58-8.144,33.732,33.732,0,0,1-9.72-14.257c-2.98-7.832-3.9-15.043-2.57-21.925a30.2,30.2,0,0,1,10.41-17.774c5.72-4.813,13.31-8.077,22.82-9.234a54.466,54.466,0,0,1,24.65,2.624,57.76,57.76,0,0,1,20.71,12.577,51.389,51.389,0,0,1,12.99,18.946c0.35,0.9.85,2.484,1.5,4.7-13.28.092-26.54,0.634-39.64,1.651a23.378,23.378,0,0,0-.71-2.682,9.828,9.828,0,0,0-3.76-4.809,8.517,8.517,0,0,0-5.61-1.334,4.768,4.768,0,0,0-3.9,2.15,4.956,4.956,0,0,0-.08,4.525C2078.9,305.559,2080.96,307.526,2084.18,309.089Zm147.3,66.7c-12.31-14.048-25.42-27.771-39.26-42.793,2.83,14.548,5.65,28.6,8.29,44.021q-17.13,1.056-35.16,3.027c-6.57-39.031-13.92-68.159-23.09-115.423,12.38,0.533,24.66,1.578,36.68,3.12,3.73,19.339,7.44,35.7,10.34,50.459a351.824,351.824,0,0,0,21.92-45.017c12.97,2.725,25.49,6.036,37.44,9.786-6.53,15.392-15.39,29.957-25.14,43.924,16.57,18.162,31.54,33.491,45.24,49.33Q2250.8,375.463,2231.48,375.785ZM2360.77,390.5a240.6,240.6,0,0,0-28.97-7.381c-7.87-11.267-17.53-23.352-28.27-36.32a260.52,260.52,0,0,1,3.57,32.474q-13.77-1.673-28.54-2.551c-2.98-28.134-6.11-51.484-17.42-89.613,10.2,3.567,19.93,7.42,29.14,11.441a330.184,330.184,0,0,1,10.97,36.973,126.465,126.465,0,0,0,12.99-25.566A289.18,289.18,0,0,1,2340.13,325c-2.51,3.978-5.67,13.5-12.38,22.1A495.279,495.279,0,0,1,2360.77,390.5Zm-140.81,61.879c-9.45,9.008-54.79,37.919-95.61,61.225-34.79,19.858-61.52,25.931-96.69,25.778-27.28-.118-44.05-6.444-44.05-6.444s53.95,5.257,98.84-7.519C2126.61,512.847,2183.1,469.733,2219.96,452.378Zm232.06,288.937s-1.07-9.055,0-12.889c166.04,16.8,145.5-154.325,83.79-226.639-64.59-75.7-141.81-55.113-198.75-35.446-91.45,31.594-173.6,139.139-259.98,154.673-121.89,21.917-158.99-17.286-171.9-22.556s-13.57-11.7-2.15-7.519c29.78,10.89,108.73,33.826,178.34,7.519s149.01-101.118,220.24-141.784c60.25-34.395,126.77-29,126.77-29l-11.82-5.37s-15.19-39.131-64.46-90.226-142.97-87.284-226.68-89.152c-63.51-1.417-161.24,34.146-182.14,44.772-10.87,13.813-33.74,118.167.58,197.979-0.08,1.257,99.16-66.922,210.57-84.856,98.06-15.785,175.9-3.639,189.08,3.223-212.38,4-274.66,46.269-366.35,95.6-130.39,78.894-195.28,170.34-205.19,180.452,55.48-89.251,103.49-129.3,145.03-167.562-8.81-51.769-15.83-85.862-16.11-120.3,2.32-35.472,8.08-65.8,17.19-91.3-52.17,23.306-138.98,163.3-152.56,195.49s-19.34,196.563-19.34,196.563l-25.78,8.593c-1.36-24.431,7.4-182.757,18.26-218.046s101.61-179.067,156.85-205.156c28.01-13.226,143.4-76.395,268.59-59.077,216.47,29.947,272.48,173.539,282.54,200.86,38.27,7.294,75.55,23.416,112.81,68.744,40.76,49.582,63.2,163.013,23.63,213.749S2452.02,741.315,2452.02,741.315Zm-659.64-22.556c28.71,18.6,31.15,36.52,31.15,36.52l1.08,11.815,8.59-5.37s-2.34,16.708-2.15,24.7a47.929,47.929,0,0,1,5.38-4.3s-0.26,33.236,1.07,35.446a73.145,73.145,0,0,0,5.37-5.371s-4.56,76.321,0,89.152c2.45-8.579,7.22-17.716,9.67-20.408-2.65,15.069-2.97,40.449-1.07,45.113,4.75-10.036,7.52-11.816,7.52-11.816s-6.19,30.428-7.52,39.743-1.61,22.135-1.08,22.556c-15.37-23.849-19.34-41.89-19.34-41.89s0.84,7.637-13.96,13.963-45.37,7.928-64.46-16.112c-27.36-34.439-42.15-46.548-52.64-94.522s-14.54-102.267,12.89-119.227S1763.67,700.161,1792.38,718.759Zm-77.35,36.52c-7.4,27.785-.66,56.617,4.29,69.818,2.47,6.583-1.57-25.223,7.53-48.336,7.74-19.68,29.03-37.841,40.82-13.963,4.95,10.029,14.89,30.172,11.82,35.446-9.81,16.852-15.88,20.177-15.04,40.816,0.4,10.01,14.09,13.872,19.33,23.631,5.26,9.776,26.49,32.9,32.23,27.927s-5.67-26.04-11.81-39.743-4.04-18.321,3.22-34.371c9.16-20.258-11.16-25.22-16.12-45.113-3.31-13.3-7.75-23.384-15.04-30.076S1723.76,722.5,1715.03,755.279Zm82.72,392.051s-75.64,8.97-95.61,12.89c-11.29,2.22-40.1,11.63-39.75,33.3,0.56,34.9-10.05,69.2-12.9,77.34-8.21,23.48-32.73,43.78-64.46,59.07,16.06,10.08,122.48,91.3,122.48,91.3s-25.59.25-34.38-1.07c-11.4-10.88-121.53-74.25-151.48-81.64s-189.8,65.76-228.83,77.34-30.53,7.24-50.5,32.22c344.39,10.59,382.13,341.17,373.87,438.24-60.34-343.19-195.02-393.22-331.97-411.38s-135.48,70.59-166.52,116c135.09-107.22,226.42-64.58,278.25-38.67-140.01-24.04-168.23,4.45-213.79,34.38,84.1-2.32,117.6-6.35,164.37,33.29-92.75-28.13-170.14-16.57-233.13,42.97s-108.63,210.12-116.024,274.97c45.264-54.25,101.5-84.59,141.814-90.22-152.538,92.41-155.7,150.56-153.631,169.71,75.121-71,128.911-82.98,180.491-82.71-48.46,18.04-66.72,25.39-119.25,60.15s-85.685,119.88-88.1,136.41,10.311,92.04,16.114,122.45,3.223,67.67,3.223,67.67c-24.328-33.22-39.087-173.46-36.527-205.15,0.935-11.57,13.967-49.41,13.967-49.41s-9.838-44.43-5.372-69.82c14.266-81.1,41.3-251.64,47.27-276.05s47.724-53.87,85.944-146.08,93.69-122.34,114.96-129.97c21.86-31.35,26.08-43.54,53.71-53.7s276.44-96.72,287.92-89.16a69.1,69.1,0,0,0,22.56,9.67s0.78-6.51,6.45-9.67c6.02-3.35,17.27-3.59,29.01-11.81,29.34-20.55,37.25-58.26,37.6-95.6s15.29-46.76,40.82-54.78,124.62-20.41,124.62-20.41Zm-513.53,554.25c8.26-2.32,85.61-13.31,192.31,54.78,53.39,34.07,78.72,69.8,85.94,91.3-24.4-13.79-48.59-44.79-102.06-75.19C1404.17,1740.49,1332.12,1710.16,1284.22,1701.58Zm306.19,214.82s-100.94-105.61-392.13-92.37c0,0,133.19-52.98,267.5-6.45C1553.83,1848.09,1590.41,1916.4,1590.41,1916.4Zm625.25-74.11c-9.02.12-95.29-19.93-148.25-39.75-51.6-19.3-112.81-66.59-112.81-66.59,14.26,11.4,144.66,68.21,199.83,82.71S2224.69,1842.16,2215.66,1842.29Zm-70.9-61.23c-11.51-.3-95.86-33.9-147.18-66.59s-84.88-80.56-84.88-80.56C1952.61,1667.16,2156.27,1781.36,2144.76,1781.06Zm-293.29,105.26c53.49,2.71,117.57-1.14,156.85-2.14,42.06-1.08,57.5-15.76,61.24,5.37s11.9,89.26,14.44,112.45c2.38,11.86-5.25,6.22-12,9-6.87-10.79-16.34-90.26-17.48-103.19-1.31-14.67-19.53-4.38-32.23-4.3-49.76.33-78.73,0.25-146.11,1.07s-62.5-2.55-67.69-3.22c-10.92-1.4-9.23-11.78-3.22-13.96C1807.07,1886.74,1829.27,1885.2,1851.47,1886.32Zm128.92-413.53c-11.05-6.18-23.29-14.96-45.13,8.59s-57.82,76.79-88.09,84.86c0,0-111.34-100.24-135.37-117.08,7.55-6.08,23.64-2.15,23.64-2.15l110.66,91.3s14.73-4.71,34.37-31.15,52.78-59.01,64.46-65.52,26.78,7.6,83.8,35.45,84.87,42.96,84.87,42.96l-42.97-1.07S1996.51,1481.81,1980.39,1472.79Zm-177.27-140.71s-58.15-39.69-96.69-85.93c-15.73-18.87-21.3-28.93-17.19-47.26s22.56-17.19,22.56-17.19c-5.03,2.16-6.61,14.37-1.07,29C1725.28,1249.16,1803.12,1332.08,1803.12,1332.08Zm358.83,237.38c-0.79-8.78-7.09-25.92-8.42-41.88-0.99-11.87-5.06-13.43-13.18-17.49-59.9-29.97-217.78-84.13-344.75-229.57,0,0,42.39-87.84,24.71-308.269,0,0,13.7,34.279,25.79,53.709,0.04,22.86-.9,40.06,11.81,67.67,3.04,6.6,10.08,25.57,22.56,42.96a11.973,11.973,0,0,1,7.52-2.15c1.15,6.79,8.77,15.73,12.05,20.75,27.5,42.07,82.57,118.38,95.39,126.41,5.97,0.57,5.01.33,9.67,0,4.41,4.37,10.16,10.81,13.01,12.84,16.45,11.76,42.27,33.96,71.86,48.38,6.19-1.04,5.51-2.32,10.74-3.22,3.93,3.92,14.18,7.91,19.34,11.81,2.89-.74,6.23-5.21,8.59-4.29,19.07,7.38,34.69,14.53,52.65,16.11,40.36-6.01,50.99-13.22,56.94-17.19,2.64,15.85-15.63,121.8-18.27,131.05,5.95-5.29,13.97-16.12,13.97-16.12s17.57,17.83,12.89,42.97C2242.5,1527.15,2234.2,1557.28,2161.95,1569.46Zm118.17-380.24c-3.2,15.92-7.53,26.62-7.52,35.45-2.35-.15-4.35-0.23-6.1-0.31l-1.42,3.53-1.48-3.72a26.985,26.985,0,0,1-3.14-.41l-1.82.91v-1.39c-4.04-1.33-7.3-4.46-13.97-12.58,3.47-10.29,1.08-35.44,1.08-35.44s-5.58-.33-12.63-0.96c-1.2-.1-1.06-0.07-2.42-0.12-0.56-.01-1.55,6.46-2.14,6.45,0.1-1.65-1.36-6.45-2.15-6.45-4.86.01-11.37,0.05-16.12,0-3.78-.03-8.53,1.18-11.82,1.08,0.32,2.88-1.22,14.05-3.22,19.33-0.28.75-.54,1.52-0.81,2.32,1.56,7.77.26,9.88,0.26,9.88s-1.82-3.24-2.52-4.43c-0.02.04-.04,0.07-0.06,0.11,0.5,2.47.94,13.19-.09,11.46-0.57-.96-2-3.83-3.24-6.36-0.63.81-1.34,1.66-2.13,2.54v15.63l-5.9-9.83c-0.36.32-.73,0.65-1.11,0.98l-2.66,8.85-3.27-6.54c-0.47.05-.96,0.08-1.49,0.11l-2.76,12.88-1.83-12.83c-0.57-.01-1.15-0.03-1.75-0.06l-2.87,4.29-0.75-4.54-1.02-.09-4.67,12.15-3.06-13.22c-0.14-.02-0.28-0.05-0.42-0.07l-2.97,7.92v-8.5c-0.54-.11-1.08-0.23-1.62-0.35l-2.68,1.33-2.15-2.14-3.22,6.44-1.07-7.52-2.15,1.08v-2.35c-0.2-.07-0.39-0.13-0.59-0.2l-5.86,6.84-0.94-9.43c-0.38-.16-0.77-0.33-1.15-0.49l-4.35,3.48-0.73-5.84c-0.52-.25-1.04-0.52-1.56-0.79l-7.38,12s-0.49-11.84-1.29-17.03c-0.55-.36-1.11-0.72-1.66-1.1-2.07,3.42-6.55,11.98-6.72,9.53-0.21-2.84-1.08-8.59-1.08-8.59s-4.6,7.34-6.44,10.74c0.49-4.51.51-17.01-.73-24.05-0.26-.26-0.53-0.53-0.8-0.81-2.84,5.52-6.8,7.42-11.36,9.83a90.945,90.945,0,0,0,3.06-19.53c-0.7-.92-1.38-1.87-2.05-2.83-2.58,1.77-6.19,2.14-9.61,3.02,1.83-3.6,1.83-11.15,1.55-16.52a125.2,125.2,0,0,1-6.92-16.78c-16.77-50.62-15.94-75.35-8.59-103.11,0,0,20.63,20.18,30.08,25.78s59.86,32.36,84.87,36.52,49.52,10.92,75.2,6.44,31.36-12.26,41.9-19.33,22.26-21.18,30.08-19.34c7.82,1.61,4.5,34.06,1.08,46.19C2323.71,1123.78,2283.31,1173.37,2280.12,1189.22Zm-62.31-36.52c-27.01-1.12-66.82-9.79-94.54-30.07,7.06,12.56,45.11,36.94,49.33,38.39,4.35,1.5,17.57,5.8,26.95,6.72,3.85,0.38,14.87,1.03,23.63,1.07,12.61,0.06,23.31-.65,24.71-1.07,15.65-4.68,29.45-18.94,30.09-22.56C2275.16,1146.23,2261.03,1154.5,2217.81,1152.7Zm15.04-99.89c-5.27.61-13.32-5.85-23.63-7.52-21.96-3.56-29.33-6.21-48.35-8.59a319.652,319.652,0,0,0-40.82-2.15s12.77-4.17,18.26-4.3c1.53-.03,6.11.05,12.25,0.18,1.27,0.03,4.94-3.4,4.94-3.4s2.21,3.56,3.86,3.6c12.78,0.29,31.27.64,42.51,0.7,1.28,0.01,4.13-4.3,4.13-4.3a7.04,7.04,0,0,1,2.14,4.3c3.38-.04,4.3-6.45,4.3-6.45s2.98,3.7,3.22,6.45c8.93,0.67,24.94,2.31,27.94,2.15a23.912,23.912,0,0,1,2.68,0c1.11,0.05,3.96-3.61,4.84-6.45,1.03,0.83,1.45,7.11,2.89,7.36,3.57,0.6,7.4,1.43,11.07,2.31,7.78,1.86,28.78,7.19,41.9,10.74s10.53,9.12,5.37,8.59-15.39-.7-42.97-2.15C2254.97,1053.13,2240.78,1051.89,2232.85,1052.81Zm41.9,42.96c-9.41,4.13-17.62,2.13-19.34,2.15-1.21,1.73-7.73,3.69-15.04,3.22-1.14-.07-1.36.14-3.22,0-0.32-.02-2.76-0.93-3.22-2.14a7.656,7.656,0,0,1-3.23,1.07c-10.32-.8-23.67-1.7-27.93-3.22-1.87-.67-5.39-1.73-9.46-2.88-2.14-.6-5.38-3.73-5.58-7.86-0.98,4.95-4.67,5.05-6.36,4.61-4.1-1.08-7.71-2-9.75-2.46-6.01-1.38-14.11-7.19-19.34-7.52s-18.06-2.73-25.78-8.6-16.92-10.64-20.42-13.96-8.59-7.83-8.59-13.96a349.286,349.286,0,0,1,54.79,4.29c14.01,2.28,29.04,2.88,34.38,7.52,0.92,0.8,3.13,3.24,3.22,4.3a4.178,4.178,0,0,1,4.3-3.22,73.691,73.691,0,0,1,13.96,1.07c3.45,0.75,11.18,2.26,19.67,3.81,1.13,0.21,1.9.89,3.97,2.63,1.53-1.4,4.11-1.29,5.37-1.07a151.306,151.306,0,0,0,21.49,2.15c9.91,0.32,17.88.91,22.56,1.07C2281.6,1071.52,2284.16,1091.65,2274.75,1095.77ZM1909.48,634.978c15.54,4.088,64.33,21.98,129.99,18.26,89.89-5.092,134.43-45.2,169.75-68.744,52.91-15.222,208.92-4.306,215.94,148.229-25.61-.512-92.74,1.288-94.54,2.148s-40.83,56.928-40.83,56.928-2.3,74.533,10.75,111.708,14.3,49.078,9.67,62.3-13.94,22.745-22.57,25.779-25.35,3.554-33.3,3.222-11.39-25.788-33.3-30.075c-18.88-3.694-34.76-2.74-42.98-6.445-18.33-8.27-17.56-32.135-17.19-41.89-5.91,11.406-3.08,30.8,1.08,37.594,4.1,6.7,17.99,19.718,37.6,20.408,19.2,0.675,32.6,3.369,35.45,18.26-7.91-2.838-29.82-4.181-47.6-4.814-1.03-.037-3.97,3.74-3.97,3.74s-1.82-3.928-3.13-3.964c-3.01-.084-5.81-0.147-8.25-0.194-1.46-.028-2.58,5.232-2.58,5.232l-6.45-6.445-5.37,8.593-3.22-8.593s-2.86,5.446-5.37,6.445c-1.29-4.23-3.63-6.58-5.38-8.593-0.16,2.181-1.77,8.867-3.22,10.741,0,0-3.21-9.843-6.44-10.741-0.24,2.035-1.93,9.046-4.3,10.741-0.71-1.46-2.44-8.636-4.3-8.593-0.42,2.755.51,10.554-4.3,13.966-0.13-6.034-1.51-11.383-4.29-15.04-0.87,2.186-4.5,9.635-5.38,9.667-0.25-3.4-3.54-9.824-3.22-10.741-0.45,5.808-3.45,14.378-6.44,17.184-0.15-4.389-1.15-16.175-2.15-18.258-0.78,3.307-3.32,8.683-4.3,10.741-0.83-4.954-3.43-5.106-5.37-6.445,0.01,5.464-2.98,9.566-4.3,11.816,0.83-6.812-4.18-10.512-5.37-12.89-0.52,3.732-.91,11.587-3.22,11.816-0.84-5-1.29-7.652-3.69-7.331a77.292,77.292,0,0,0-14.58,3.034c-20.05,7.157-19.1,10.917-24.71,21.487s2.55,50.83,4.3,63.37c3.25,23.35-10.74,44.04-10.74,44.04s-4.11-6.13-10.94-16.24c-2.55-3.77-5.48-8.11-8.72-12.89a53.389,53.389,0,0,0-3.98,15.16c-1.46,13.73-5.19-21.99-4.39-27.49-0.06-.09-0.12-0.19-0.19-0.28-2.49,1.39-5.46,5.97-5.09,9.51,0.39,3.68-2.78-12.87-1.07-18.26-4.43,1.84-8.92,7.33-8.6,12.89s-1.51-20.48,1.08-23.63a3.072,3.072,0,0,0,.2-0.28c-0.16-.24-0.32-0.48-0.49-0.71-1.59.35-5.27,2.46-6.01,3.74,0.15-1.84.44-7.08,1.81-9.88l-0.3-.45a7.984,7.984,0,0,0-7.03,2.21c-0.28-4.08,1.6-8.47,2.05-9.46a1.463,1.463,0,0,1-.09-0.13c-1.06.45-6.73,3.29-9.48,13.89-2.43-13.65-1.14-23.27,0-26.85a1.772,1.772,0,0,0,.11-0.65,2.141,2.141,0,0,1-.13-0.19c-0.87-.13-5.67,6.34-5.35,9.43,0.37,3.58-3.14-13.82-1.24-18.95a1.431,1.431,0,0,0-.11-0.15c-4.86,4.21-6.49,5.93-8.32,11.58-1.9-5.15-.85-17.44,1.77-21.01-0.1-.16-0.21-0.31-0.32-0.46-3.64.17-6.26,2.11-6.75,3.62,0.03-2.09.16-7.52,2.08-10.08,0.03-.04.05-0.08,0.08-0.12-0.26-.38-0.53-0.76-0.79-1.14a16.515,16.515,0,0,0-6.58,2.81c-0.06-1.95-.98-7.78.48-11.5-0.15-.221-0.31-0.441-0.46-0.661-4.94.807-6.46,1.935-9.92,6.32a30.014,30.014,0,0,1,1.88-17.7c-0.08-.1-0.15-0.209-0.22-0.313-1.73.941-7.67,4.823-10.26,14.787a52.118,52.118,0,0,1,1.99-26.361l-0.24-.34c-4.13,1.566-7.49,4.878-7.12,8.441,0.35,3.365-1.82-12.677-.47-18.933-0.15-.207-0.3-0.415-0.45-0.62-4.59,4.525-7.93,12.095-7.67,17.31-0.2-4.117-.99-23.08.9-26.491-0.06-.087-0.12-0.173-0.19-0.26-3.82.061-6.58,2.065-7.09,3.625,0.03-2.094.16-7.523,2.08-10.077-5.66.478-6.76,1.448-7.52,2.148-1.48-3.431-.75-9.5-0.29-12.368-1.46-1.81-2.81-3.431-4.01-4.818-3.31-65.127-7.78-110.631-12.89-141.783-3.92-23.86,13.51-113.266,12.89-138.561A44.1,44.1,0,0,1,1909.48,634.978Zm311.56,114.93c5.68-3.821,7.34-21.017,6.44-22.556s-15.46-11.184-31.15-17.186-85.81-23.078-116.03-20.408-69.83,52.632-69.83,52.632c40.29-16.055,80.36-14.408,91.32-13.964s63.65,17.428,70.9,19.334S2215.35,753.73,2221.04,749.908Zm-45.13,68.744c4.19-1.417,1.57-4.035-1.07-5.371s-20.38.124-26.86,2.149-37.6,7.518-37.6,7.518C2120.98,822.645,2171.73,820.069,2175.91,818.652Zm-154.7,210.528c3.88-28.1,27.36-39.1,45.12-47.262s36.99-19.934,44.05-26.853a522.019,522.019,0,0,1,40.82-36.52c-4.76.923-41.09,21.153-65.53,34.372s-46.8,27.962-56.94,40.816S2021.21,1029.18,2021.21,1029.18Zm-14.45-239.661c6.12-1.02,46.9-.287,64.94,1.206,14.65,1.211,29.13,4.808,36.53,5.37s69.83,7.519,69.83,7.519,2.22-2.546,1.08-5.37c-2.59-6.377-.94-8.357,3.22-9.667,4.06-1.278,3.15-7.4,3.22-13.964,0.09-8.307-9.5-18.46-20.41-21.482-14.04-3.892-54.48-1.962-73.05,2.148-15.49,3.428-59.16,28.44-66.61,30.075-6.47,1.421-16.28,3.612-18.75,4.165a3.619,3.619,0,0,0-.59.132Zm154.11,7.651c-13.04-3.025-23.99-5.536-27.93-6.445,0,0,2.11-11.41,0-19.334C2137.5,771.645,2161.8,784.746,2160.87,797.17Zm-181.56,267.45a0.824,0.824,0,0,1,.15-0.47C1979.41,1064.79,1979.37,1065.02,1979.31,1064.62Zm-33.3-47.26a1.4,1.4,0,0,1,.07-0.66C1946.07,1017.46,1946.07,1017.8,1946.01,1017.36Zm-5.37-8.59c-0.13-.14-0.03-0.35.23-0.6C1940.88,1008.73,1940.83,1008.98,1940.64,1008.77ZM1908.41,978.7a0.3,0.3,0,0,1,0-.094c0.01,0.289.02,0.5,0.03,0.637C1908.43,979.125,1908.42,978.962,1908.41,978.7Zm-6.45-22.556a1.555,1.555,0,0,1,.07-0.664C1902.02,956.24,1902.02,956.572,1901.96,956.139ZM2309.13,999.1s15.33-9.152,18.26-25.779a221.3,221.3,0,0,1,31.16,40.815s-0.68-14.971-7.52-27.926c-4.11-7.8-16.54-20.883-24.71-35.446-1.77-14.284-6.61-25.477-10.74-37.594-10.74-31.491-14.93-65.221-13.97-68.743,13.79,0.38,37,12.693,39.75,15.037-7.56-9.083-32.95-24.119-39.75-25.778-0.67-5.562,1.07-8.593,1.07-8.593s37.19,2.719,64.46-1.074c2.34-10.429,3.23-13.964,3.23-13.964s10.89,2.334,16.11,7.519c6.5,6.446,13.97,16.929,17.19,16.112,3.73-.945,1.52-14.971-3.22-21.483-5.55-7.624-25.03-27.975-66.61-27.927,7.48-6.64,53.12-15,71.98-8.593s18.26,13.964,18.26,13.964,0.44,23.368-2.14,39.742-2.12,24.161-1.08,33.3,9.05,79.106-5.37,116c-12.01,30.725-32.36,98.325-35.7,112.505-1.42-7.56-8.71-45.05-15.87-55.58C2353.82,1025.53,2329.68,1023.13,2309.13,999.1Zm70.66,92.1c0.16,0.86.25,1.35,0.25,1.35C2379.13,1094.75,2379.12,1094.05,2379.79,1091.2ZM1557.1,2114.04c-133.95,42.32-163.3,104.19-163.3,104.19s110.1-67.45,209.5-80.56c56.64-7.48,122.2-6.05,200.9-22.56s282.64-16.42,423.8-94.11c38.3,48,62.29,133.82,73,192-71.08,48.28-142,61-142,61s63.31-40.34,85-77c-43,26.58-118.46,71.62-223.84,123.95,4.86-30.46,5.5-44,5.5-44s-312.74-.7-315.54,2.1c-9.12,53.58-23.49,133.44-32.61,187.01h-1.05c-7.34-58.74-17.2-94.54-49.46-126.76-70.08-70.02-151.27-74.47-293.43-72.86q-24.705,2.625-49.43,5.26c-38.9,8.31-74.94,19.6-104.13,37.82-48.53,30.29-94.61,80.11-112.55,140.78a282.817,282.817,0,0,0-10.05,50.41c-16.94-37.91-32.58-87.43-43.92-151.44C1055.04,2177.66,1290.68,2018.87,1557.1,2114.04Zm1149.53,23.63c3.57,1.22-8.65,100.12-15.12,138.4l-15.54.03c4.68-30.56,12.99-92.54,13.63-114.58A96.148,96.148,0,0,0,2706.63,2137.67Z" transform="translate(-509.5 -216.312)"/>
      <path id="Skin_copy" data-name="Skin copy" class="cls-7" d="M2729,2221.3c59.16-3.62,134.84-13.57,204.32-29.93,0,0,2.03,35.04,3.62,85.61L2788,2277l-61,68,13-69-23.77.04C2723.26,2247.68,2728.52,2225.8,2729,2221.3ZM1557.1,2114.04c-133.95,42.32-163.3,104.19-163.3,104.19s110.1-67.45,209.5-80.56c56.64-7.48,122.2-6.05,200.9-22.56s282.64-16.42,423.8-94.11c38.3,48,62.29,133.82,73,192-71.08,48.28-142,61-142,61s63.31-40.34,85-77c-43,26.58-118.46,71.62-223.84,123.95,4.86-30.46,5.5-44,5.5-44s-312.74-.7-315.54,2.1c-9.12,53.58-23.49,133.44-32.61,187.01h-1.05c-7.34-58.74-17.2-94.54-49.46-126.76-70.08-70.02-151.27-74.47-293.43-72.86q-24.705,2.625-49.43,5.26c-38.9,8.31-74.94,19.6-104.13,37.82-48.53,30.29-94.61,80.11-112.55,140.78a282.817,282.817,0,0,0-10.05,50.41c-16.94-37.91-32.58-87.43-43.92-151.44C1055.04,2177.66,1290.68,2018.87,1557.1,2114.04ZM1792.38,718.759c28.71,18.6,31.15,36.52,31.15,36.52l1.08,11.815,8.59-5.37s-2.34,16.708-2.15,24.7a47.929,47.929,0,0,1,5.38-4.3s-0.26,33.236,1.07,35.446a73.145,73.145,0,0,0,5.37-5.371s-4.56,76.321,0,89.152c2.45-8.579,7.22-17.716,9.67-20.408-2.65,15.069-2.97,40.449-1.07,45.113,4.75-10.036,7.52-11.816,7.52-11.816s-6.19,30.428-7.52,39.743-1.61,22.135-1.08,22.556c-15.37-23.849-19.34-41.89-19.34-41.89s0.84,7.637-13.96,13.963-45.37,7.928-64.46-16.112c-27.36-34.439-42.15-46.548-52.64-94.522s-14.54-102.267,12.89-119.227S1763.67,700.161,1792.38,718.759Zm-77.35,36.52c-7.4,27.785-.66,56.617,4.29,69.818,2.47,6.583-1.57-25.223,7.53-48.336,7.74-19.68,29.03-37.841,40.82-13.963,4.95,10.029,14.89,30.172,11.82,35.446-9.81,16.852-15.88,20.177-15.04,40.816,0.4,10.01,14.09,13.872,19.33,23.631,5.26,9.776,26.49,32.9,32.23,27.927s-5.67-26.04-11.81-39.743-4.04-18.321,3.22-34.371c9.16-20.258-11.16-25.22-16.12-45.113-3.31-13.3-7.75-23.384-15.04-30.076S1723.76,722.5,1715.03,755.279Zm446.92,814.181c-0.79-8.78-7.09-25.92-8.42-41.88-0.99-11.87-5.06-13.43-13.18-17.49-59.9-29.97-217.78-84.13-344.75-229.57,0,0,42.39-87.84,24.71-308.269,0,0,13.7,34.279,25.79,53.709,0.04,22.86-.9,40.06,11.81,67.67,3.04,6.6,10.08,25.57,22.56,42.96a11.973,11.973,0,0,1,7.52-2.15c1.15,6.79,8.77,15.73,12.05,20.75,27.5,42.07,82.57,118.38,95.39,126.41,5.97,0.57,5.01.33,9.67,0,4.41,4.37,10.16,10.81,13.01,12.84,16.45,11.76,42.27,33.96,71.86,48.38,6.19-1.04,5.51-2.32,10.74-3.22,3.93,3.92,14.18,7.91,19.34,11.81,2.89-.74,6.23-5.21,8.59-4.29,19.07,7.38,34.69,14.53,52.65,16.11,40.36-6.01,50.99-13.22,56.94-17.19,2.64,15.85-15.63,121.8-18.27,131.05,5.95-5.29,13.97-16.12,13.97-16.12s17.57,17.83,12.89,42.97C2242.5,1527.15,2234.2,1557.28,2161.95,1569.46Zm118.17-380.24c-3.2,15.92-7.53,26.62-7.52,35.45-2.35-.15-4.35-0.23-6.1-0.31l-1.42,3.53-1.48-3.72a26.985,26.985,0,0,1-3.14-.41l-1.82.91v-1.39c-4.04-1.33-7.3-4.46-13.97-12.58,3.47-10.29,1.08-35.44,1.08-35.44s-5.58-.33-12.63-0.96c-1.2-.1-1.06-0.07-2.42-0.12-0.56-.01-1.55,6.46-2.14,6.45,0.1-1.65-1.36-6.45-2.15-6.45-4.86.01-11.37,0.05-16.12,0-3.78-.03-8.53,1.18-11.82,1.08,0.32,2.88-1.22,14.05-3.22,19.33-0.28.75-.54,1.52-0.81,2.32,1.56,7.77.26,9.88,0.26,9.88s-1.82-3.24-2.52-4.43c-0.02.04-.04,0.07-0.06,0.11,0.5,2.47.94,13.19-.09,11.46-0.57-.96-2-3.83-3.24-6.36-0.63.81-1.34,1.66-2.13,2.54v15.63l-5.9-9.83c-0.36.32-.73,0.65-1.11,0.98l-2.66,8.85-3.27-6.54c-0.47.05-.96,0.08-1.49,0.11l-2.76,12.88-1.83-12.83c-0.57-.01-1.15-0.03-1.75-0.06l-2.87,4.29-0.75-4.54-1.02-.09-4.67,12.15-3.06-13.22c-0.14-.02-0.28-0.05-0.42-0.07l-2.97,7.92v-8.5c-0.54-.11-1.08-0.23-1.62-0.35l-2.68,1.33-2.15-2.14-3.22,6.44-1.07-7.52-2.15,1.08v-2.35c-0.2-.07-0.39-0.13-0.59-0.2l-5.86,6.84-0.94-9.43c-0.38-.16-0.77-0.33-1.15-0.49l-4.35,3.48-0.73-5.84c-0.52-.25-1.04-0.52-1.56-0.79l-7.38,12s-0.49-11.84-1.29-17.03c-0.55-.36-1.11-0.72-1.66-1.1-2.07,3.42-6.55,11.98-6.72,9.53-0.21-2.84-1.08-8.59-1.08-8.59s-4.6,7.34-6.44,10.74c0.49-4.51.51-17.01-.73-24.05-0.26-.26-0.53-0.53-0.8-0.81-2.84,5.52-6.8,7.42-11.36,9.83a90.945,90.945,0,0,0,3.06-19.53c-0.7-.92-1.38-1.87-2.05-2.83-2.58,1.77-6.19,2.14-9.61,3.02,1.83-3.6,1.83-11.15,1.55-16.52a125.2,125.2,0,0,1-6.92-16.78c-16.77-50.62-15.94-75.35-8.59-103.11,0,0,20.63,20.18,30.08,25.78s59.86,32.36,84.87,36.52,49.52,10.92,75.2,6.44,31.36-12.26,41.9-19.33,22.26-21.18,30.08-19.34c7.82,1.61,4.5,34.06,1.08,46.19C2323.71,1123.78,2283.31,1173.37,2280.12,1189.22Zm-62.31-36.52c-27.01-1.12-66.82-9.79-94.54-30.07,7.06,12.56,45.11,36.94,49.33,38.39,4.35,1.5,17.57,5.8,26.95,6.72,3.85,0.38,14.87,1.03,23.63,1.07,12.61,0.06,23.31-.65,24.71-1.07,15.65-4.68,29.45-18.94,30.09-22.56C2275.16,1146.23,2261.03,1154.5,2217.81,1152.7Zm15.04-99.89c-5.27.61-13.32-5.85-23.63-7.52-21.96-3.56-29.33-6.21-48.35-8.59a319.652,319.652,0,0,0-40.82-2.15s12.77-4.17,18.26-4.3c1.53-.03,6.11.05,12.25,0.18,1.27,0.03,4.94-3.4,4.94-3.4s2.21,3.56,3.86,3.6c12.78,0.29,31.27.64,42.51,0.7,1.28,0.01,4.13-4.3,4.13-4.3a7.04,7.04,0,0,1,2.14,4.3c3.38-.04,4.3-6.45,4.3-6.45s2.98,3.7,3.22,6.45c8.93,0.67,24.94,2.31,27.94,2.15a23.912,23.912,0,0,1,2.68,0c1.11,0.05,3.96-3.61,4.84-6.45,1.03,0.83,1.45,7.11,2.89,7.36,3.57,0.6,7.4,1.43,11.07,2.31,7.78,1.86,28.78,7.19,41.9,10.74s10.53,9.12,5.37,8.59-15.39-.7-42.97-2.15C2254.97,1053.13,2240.78,1051.89,2232.85,1052.81Zm-126.77,5.37c-3.5-3.32-8.59-7.83-8.59-13.96m111.73-459.726c52.91-15.222,208.92-4.306,215.94,148.229-25.61-.512-92.74,1.288-94.54,2.148s-40.83,56.928-40.83,56.928-2.3,74.533,10.75,111.708,14.3,49.078,9.67,62.3-13.94,22.745-22.57,25.779-25.35,3.554-33.3,3.222-11.39-25.788-33.3-30.075c-18.88-3.694-34.76-2.74-42.98-6.445-18.33-8.27-17.56-32.135-17.19-41.89-5.91,11.406-3.08,30.8,1.08,37.594,4.1,6.7,17.99,19.718,37.6,20.408,19.2,0.675,32.6,3.369,35.45,18.26-7.91-2.838-29.82-4.181-47.6-4.814-1.03-.037-3.97,3.74-3.97,3.74s-1.82-3.928-3.13-3.964c-3.01-.084-5.81-0.147-8.25-0.194-1.46-.028-2.58,5.232-2.58,5.232l-6.45-6.445-5.37,8.593-3.22-8.593s-2.86,5.446-5.37,6.445c-1.29-4.23-3.63-6.58-5.38-8.593-0.16,2.181-1.77,8.867-3.22,10.741,0,0-3.21-9.843-6.44-10.741-0.24,2.035-1.93,9.046-4.3,10.741-0.71-1.46-2.44-8.636-4.3-8.593-0.42,2.755.51,10.554-4.3,13.966-0.13-6.034-1.51-11.383-4.29-15.04-0.87,2.186-4.5,9.635-5.38,9.667-0.25-3.4-3.54-9.824-3.22-10.741-0.45,5.808-3.45,14.378-6.44,17.184-0.15-4.389-1.15-16.175-2.15-18.258-0.78,3.307-3.32,8.683-4.3,10.741-0.83-4.954-3.43-5.106-5.37-6.445,0.01,5.464-2.98,9.566-4.3,11.816,0.83-6.812-4.18-10.512-5.37-12.89-0.52,3.732-.91,11.587-3.22,11.816-0.84-5-1.29-7.652-3.69-7.331a77.292,77.292,0,0,0-14.58,3.034c-20.05,7.157-19.1,10.917-24.71,21.487s2.55,50.83,4.3,63.37c3.25,23.35-10.74,44.04-10.74,44.04s-4.11-6.13-10.94-16.24c-2.55-3.77-5.48-8.11-8.72-12.89a53.389,53.389,0,0,0-3.98,15.16c-1.46,13.73-5.19-21.99-4.39-27.49-0.06-.09-0.12-0.19-0.19-0.28-2.49,1.39-5.46,5.97-5.09,9.51,0.39,3.68-2.78-12.87-1.07-18.26-4.43,1.84-8.92,7.33-8.6,12.89s-1.51-20.48,1.08-23.63a3.072,3.072,0,0,0,.2-0.28c-0.16-.24-0.32-0.48-0.49-0.71-1.59.35-5.27,2.46-6.01,3.74,0.15-1.84.44-7.08,1.81-9.88l-0.3-.45a7.984,7.984,0,0,0-7.03,2.21c-0.28-4.08,1.6-8.47,2.05-9.46a1.463,1.463,0,0,1-.09-0.13c-1.06.45-6.73,3.29-9.48,13.89-2.43-13.65-1.14-23.27,0-26.85a1.772,1.772,0,0,0,.11-0.65,2.141,2.141,0,0,1-.13-0.19c-0.87-.13-5.67,6.34-5.35,9.43,0.37,3.58-3.14-13.82-1.24-18.95a1.431,1.431,0,0,0-.11-0.15c-4.86,4.21-6.49,5.93-8.32,11.58-1.9-5.15-.85-17.44,1.77-21.01-0.1-.16-0.21-0.31-0.32-0.46-3.64.17-6.26,2.11-6.75,3.62,0.03-2.09.16-7.52,2.08-10.08,0.03-.04.05-0.08,0.08-0.12-0.26-.38-0.53-0.76-0.79-1.14a16.515,16.515,0,0,0-6.58,2.81c-0.06-1.95-.98-7.78.48-11.5-0.15-.221-0.31-0.441-0.46-0.661-4.94.807-6.46,1.935-9.92,6.32a30.014,30.014,0,0,1,1.88-17.7c-0.08-.1-0.15-0.209-0.22-0.313-1.73.941-7.67,4.823-10.26,14.787a52.118,52.118,0,0,1,1.99-26.361l-0.24-.34c-4.13,1.566-7.49,4.878-7.12,8.441,0.35,3.365-1.82-12.677-.47-18.933-0.15-.207-0.3-0.415-0.45-0.62-4.59,4.525-7.93,12.095-7.67,17.31-0.2-4.117-.99-23.08.9-26.491-0.06-.087-0.12-0.173-0.19-0.26-3.82.061-6.58,2.065-7.09,3.625,0.03-2.094.16-7.523,2.08-10.077-5.66.478-6.76,1.448-7.52,2.148-1.48-3.431-.75-9.5-0.29-12.368-1.46-1.81-2.81-3.431-4.01-4.818-3.31-65.127-7.78-110.631-12.89-141.783-3.92-23.86,11.13-106.795,11.6-119.577s0-20,0-20,8.52-11.472,18-14C2083.35,691.239,2173.9,608.042,2209.22,584.494Zm11.82,165.414c5.68-3.821,7.34-21.017,6.44-22.556s-15.46-11.184-31.15-17.186-85.81-23.078-116.03-20.408-69.83,52.632-69.83,52.632c40.29-16.055,80.36-14.408,91.32-13.964s63.65,17.428,70.9,19.334S2215.35,753.73,2221.04,749.908Zm-45.13,68.744c4.19-1.417,1.57-4.035-1.07-5.371s-20.38.124-26.86,2.149-37.6,7.518-37.6,7.518C2120.98,822.645,2171.73,820.069,2175.91,818.652Zm-154.7,210.528c3.88-28.1,27.36-39.1,45.12-47.262s36.99-19.934,44.05-26.853a522.019,522.019,0,0,1,40.82-36.52c-4.76.923-41.09,21.153-65.53,34.372s-46.8,27.962-56.94,40.816S2021.21,1029.18,2021.21,1029.18Zm-14.45-239.661c6.12-1.02,46.9-.287,64.94,1.206,14.65,1.211,29.13,4.808,36.53,5.37s69.83,7.519,69.83,7.519,2.22-2.546,1.08-5.37c-2.59-6.377-.94-8.357,3.22-9.667,4.06-1.278,3.15-7.4,3.22-13.964,0.09-8.307-9.5-18.46-20.41-21.482-14.04-3.892-54.48-1.962-73.05,2.148-15.49,3.428-59.16,28.44-66.61,30.075-6.47,1.421-16.28,3.612-18.75,4.165a3.619,3.619,0,0,0-.59.132Zm-27.45,275.1a0.824,0.824,0,0,1,.15-0.47C1979.41,1064.79,1979.37,1065.02,1979.31,1064.62Zm-33.3-47.26a1.4,1.4,0,0,1,.07-0.66C1946.07,1017.46,1946.07,1017.8,1946.01,1017.36Zm-5.37-8.59c-0.13-.14-0.03-0.35.23-0.6C1940.88,1008.73,1940.83,1008.98,1940.64,1008.77ZM1908.41,978.7a0.3,0.3,0,0,1,0-.094c0.01,0.289.02,0.5,0.03,0.637C1908.43,979.125,1908.42,978.962,1908.41,978.7Zm-6.45-22.556a1.555,1.555,0,0,1,.07-0.664C1902.02,956.24,1902.02,956.572,1901.96,956.139ZM2309.13,999.1s15.33-9.152,18.26-25.779a221.3,221.3,0,0,1,31.16,40.815s-0.68-14.971-7.52-27.926c-4.11-7.8-16.54-20.883-24.71-35.446-1.77-14.284-6.61-25.477-10.74-37.594-10.74-31.491-14.93-65.221-13.97-68.743,13.79,0.38,37,12.693,39.75,15.037-7.56-9.083-32.95-24.119-39.75-25.778-0.67-5.562,1.07-8.593,1.07-8.593s37.19,2.719,64.46-1.074c2.34-10.429,3.23-13.964,3.23-13.964s10.89,2.334,16.11,7.519c6.5,6.446,13.97,16.929,17.19,16.112,3.73-.945,1.52-14.971-3.22-21.483-5.55-7.624-25.03-27.975-66.61-27.927,7.48-6.64,53.12-15,71.98-8.593s18.26,13.964,18.26,13.964,0.44,23.368-2.14,39.742-2.12,24.161-1.08,33.3,9.05,79.106-5.37,116c-12.01,30.725-32.36,98.325-35.7,112.505-1.42-7.56-8.71-45.05-15.87-55.58C2353.82,1025.53,2329.68,1023.13,2309.13,999.1Zm70.66,92.1c0.16,0.86.25,1.35,0.25,1.35C2379.13,1094.75,2379.12,1094.05,2379.79,1091.2Z" transform="translate(-509.5 -216.312)"/>
      <path id="Shade" class="cls-8" d="M2163,616c34.22-22.255,45-31,45-31s154.97-40.266,209,99C2417,684,2329.53,615.9,2163,616Zm75.23,730.04c1.54,9.26-4.05,49.23-9.49,82.74-13.08,8.57-29.97,15.4-51.74,19.22-96.72,16.95-214.44-187.29-249.01-251.82,27,38.35,58.2,79.63,67.44,85.42,5.97,0.57,5.01.33,9.67,0,4.41,4.37,10.16,10.81,13.01,12.84,16.45,11.76,42.27,33.96,71.86,48.38,6.19-1.04,5.51-2.32,10.74-3.22,3.93,3.92,14.18,7.91,19.34,11.81,2.89-.74,6.23-5.21,8.59-4.29,19.07,7.38,34.69,14.53,52.65,16.11C2221.65,1357.22,2232.28,1350.01,2238.23,1346.04ZM1030,2446l-27-98c75.85-175.91,266.67-332.68,554-234C1133.8,2075.75,1030,2446,1030,2446Z" transform="translate(-509.5 -216.312)"/>
    </g>
  </g>
</svg>
